<svg width="95" height="71" viewBox="0 0 95 71" fill="none" xmlns="http://www.w3.org/2000/svg">
<path fill-rule="evenodd" clip-rule="evenodd" d="M51.9422 0.140498C39.6413 1.5685 28.875 8.17391 22.6472 18.1139C20.936 20.8449 19.1943 24.9411 18.3092 28.3147C18.0876 29.1595 17.9424 29.3006 16.7671 29.8133C16.0535 30.1246 15.4335 30.3468 15.3893 30.3072C15.345 30.2677 15.4211 29.3991 15.5587 28.3771C16.128 24.1417 15.7222 21.2681 14.3188 19.5986L13.7675 18.9428L14.5056 18.7821C14.9116 18.6937 15.4444 18.4817 15.6894 18.311C16.014 18.085 16.9946 17.9988 19.3029 17.9936C22.2309 17.9871 22.4367 17.9595 22.0191 17.6292C21.3429 17.0946 19.407 16.2616 17.963 15.8843C17.0104 15.6352 16.397 15.2814 15.5611 14.4988C14.0071 13.0439 12.7221 12.5183 10.4108 12.3924C8.55079 12.2911 5.53061 12.665 5.30906 13.024C5.18891 13.2186 6.78764 13.9318 7.34389 13.9318C7.75267 13.9318 7.75289 13.8891 7.33937 15.0621C6.75828 16.7105 7.03404 18.5416 7.98189 19.3283C8.57925 19.8242 8.41845 20.3021 7.26846 21.4496C5.90618 22.8089 4.87205 24.5125 4.12429 26.6284C3.62021 28.0546 3.52445 28.7608 3.43999 31.6774L3.34197 35.0682L4.45876 33.8249C6.96222 31.0376 6.87527 31.1113 6.00849 32.5151C5.57058 33.2245 4.56988 34.6487 3.78485 35.6799C1.52982 38.6415 0.540858 42.0414 0.0918843 48.3746C-0.0630432 50.5611 -0.0573972 50.5995 0.388189 50.3608C1.2351 49.9073 3.14075 47.6038 3.83657 46.1927L4.529 44.7887L4.40095 45.806C4.33048 46.3654 4.2397 47.8913 4.1995 49.1968C4.14755 50.8782 3.94542 52.25 3.50639 53.9006C3.16537 55.1824 2.9323 56.2767 2.98831 56.3328C3.12765 56.4723 5.15842 54.1113 6.29034 52.4941C7.48346 50.7892 8.037 49.2739 8.238 47.1623C8.87578 40.4633 11.6313 35.5104 15.5347 34.0467C17.4582 33.3253 17.3672 33.1933 17.3692 36.7071C17.3726 42.3491 18.3544 46.8377 20.6835 51.8607C22.2948 55.3356 25.3875 59.6863 27.7591 61.8147C30.7519 64.5005 32.6671 65.8213 35.5418 67.1829C45.5112 71.9041 58.6032 72.0605 67.6391 67.5663C72.1826 65.3064 76.5705 61.3698 79.5561 56.8749C82.4191 52.5646 84.6536 47.2979 84.3487 45.5799C84.024 43.7515 82.1867 42.1825 80.3843 42.194C79.3527 42.2006 77.8804 42.8914 77.286 43.6478C77.0217 43.9842 76.4876 45.2431 76.099 46.4455C73.2646 55.2133 67.7629 61.2262 60.3618 63.6446C53.2625 65.9646 43.2297 65.2071 36.5859 61.8495C28.9082 57.9694 23.4051 50.1372 21.7614 40.7504C21.2867 38.0397 21.2905 33.2152 21.7698 30.434C23.5397 20.1599 30.5397 10.9834 40.3708 6.04965C57.4586 -2.52608 78.6431 2.81883 89.0835 18.34C90.348 20.2196 92.3528 24.3063 93.0211 26.3661C93.2833 27.175 93.6927 28.7009 93.9307 29.757C94.4504 32.0641 94.538 31.6566 94.062 29.1451C93.3156 25.2069 91.2945 20.384 88.8807 16.7808C83.2886 8.43342 73.7908 2.35925 63.5584 0.585832C60.5064 0.0568566 54.6092 -0.169201 51.9422 0.140498ZM39.401 18.2039C38.7088 18.5029 38.4733 18.8606 36.4578 22.6703C35.1617 25.1203 34.5619 26.0585 34.4781 25.7664C34.4119 25.5363 33.9293 23.7454 33.4058 21.7873L32.4537 18.2269H30.3174C28.7024 18.2269 28.2074 18.2959 28.288 18.5095C28.3465 18.665 29.1299 21.3348 30.0288 24.4426C30.9279 27.5507 31.7978 30.3536 31.9622 30.6718C32.2967 31.3195 33.1592 31.7904 34.0106 31.7904C35.2401 31.7904 35.7663 31.2289 37.6455 27.9106C38.6553 26.1281 39.6616 24.2882 39.8821 23.8218C40.1027 23.3557 40.3495 22.9741 40.4308 22.9741C40.5121 22.9741 40.7028 23.2538 40.8545 23.5958C41.0065 23.9378 41.9991 25.7533 43.0606 27.6305C45.0459 31.1414 45.6374 31.7904 46.8513 31.7904C47.8319 31.7904 48.6985 31.197 49.0673 30.2731C49.3685 29.5185 49.9532 27.5825 52.0753 20.3146C52.3752 19.2869 52.6207 18.3969 52.6207 18.3366C52.6207 18.2762 51.7098 18.2269 50.5969 18.2269H48.5729L48.3157 19.1877C46.2289 26.9801 46.4007 26.483 46.0697 25.683C45.4795 24.257 42.6457 19.0125 42.241 18.5977C41.7805 18.1254 40.1165 17.8948 39.401 18.2039ZM54.3307 19.848C53.6385 20.7395 53.0723 21.5534 53.0723 21.6564C53.0723 21.7595 54.4443 21.8438 56.1212 21.8438H59.1701V26.7041V31.5643H61.2027H63.2352V26.7041V21.8438H65.5826H67.93L69.1961 20.1893C69.8924 19.2794 70.4622 18.4656 70.4622 18.3809C70.4622 18.2961 67.1156 18.2269 63.0256 18.2269H55.5891L54.3307 19.848ZM71.8464 19.8866C71.085 20.8194 70.4622 21.6411 70.4622 21.713C70.4622 21.7851 73.2107 21.8438 76.5701 21.8438H82.6782L83.2324 22.3988C83.8995 23.0666 83.9255 23.4308 83.3555 24.1358L82.9239 24.6696L76.6931 24.7362L70.4622 24.8029V28.1836V31.5643H72.4947H74.5273V29.8689V28.1735H78.5814C83.1531 28.1735 84.4257 27.9766 85.8996 27.0409C87.3725 26.1059 87.9238 24.9266 87.8122 22.9499C87.7393 21.6592 87.6182 21.2814 87.0451 20.5567C86.6627 20.0734 85.7747 19.399 85.0193 19.0181L83.6739 18.34L78.4522 18.2656L73.2305 18.1912L71.8464 19.8866ZM16.7958 31.1201C15.9546 31.4832 15.1309 32.2868 15.1309 32.745C15.1309 33.05 15.7953 32.9365 16.6926 32.4783C17.3024 32.167 17.5946 31.8492 17.68 31.4045C17.7466 31.0573 17.7848 30.7607 17.7647 30.7455C17.7446 30.7304 17.3085 30.8988 16.7958 31.1201ZM94.4538 32.6946C94.4538 33.1298 94.5003 33.3079 94.557 33.0902C94.6139 32.8725 94.6139 32.5167 94.557 32.299C94.5003 32.0813 94.4538 32.2594 94.4538 32.6946ZM31.6174 37.1027V39.7024H32.8245C33.7071 39.7024 34.1321 39.5912 34.4054 39.2889C34.7999 38.8524 34.9171 37.5539 34.5806 37.3457C34.4716 37.2782 34.4323 36.7774 34.4937 36.2331C34.5894 35.3829 34.5305 35.191 34.0772 34.8731C33.787 34.6697 33.1147 34.5031 32.5833 34.5031H31.6174V37.1027ZM37.7151 36.6506C37.7151 38.4876 37.7797 38.8628 38.1611 39.2446C39.0284 40.1127 40.467 40.1127 41.3342 39.2446C41.7157 38.8628 41.7803 38.4876 41.7803 36.6506C41.7803 34.8923 41.7188 34.5031 41.4415 34.5031C41.1655 34.5031 41.1027 34.8783 41.1027 36.5247C41.1027 38.3576 41.0558 38.5793 40.6007 38.8983C39.9252 39.3719 39.387 39.3414 38.8443 38.7982C38.4635 38.417 38.3926 38.0447 38.3926 36.4246C38.3926 34.8673 38.3285 34.5031 38.0539 34.5031C37.7765 34.5031 37.7151 34.8923 37.7151 36.6506ZM44.2645 34.643C44.2645 34.7201 44.6202 35.3691 45.055 36.0855C45.686 37.1251 45.8454 37.6213 45.8454 38.5452C45.8454 39.4232 45.9272 39.7024 46.1842 39.7024C46.4364 39.7024 46.5229 39.4356 46.5229 38.6582C46.5229 37.8636 46.712 37.3026 47.3134 36.3115C48.1585 34.919 48.2743 34.5031 47.8168 34.5031C47.6589 34.5031 47.28 34.9608 46.9746 35.5203C46.6693 36.0798 46.3657 36.5376 46.3003 36.5376C46.2345 36.5376 45.9046 36.0798 45.5669 35.5203C45.2293 34.9608 44.7982 34.5031 44.6089 34.5031C44.4194 34.5031 44.2645 34.5661 44.2645 34.643ZM50.5881 37.1027C50.5881 39.2629 50.6454 39.7024 50.9268 39.7024C51.1997 39.7024 51.2679 39.3396 51.2767 37.8374L51.2877 35.9724L53.0389 37.8374C54.0021 38.863 54.861 39.7024 54.9475 39.7024C55.034 39.7024 55.1049 38.5325 55.1049 37.1027C55.1049 34.9735 55.0453 34.5031 54.775 34.5031C54.5171 34.5031 54.4308 34.9165 54.3797 36.397L54.3145 38.2907L52.6216 36.397C51.6904 35.3553 50.8521 34.5031 50.7584 34.5031C50.6646 34.5031 50.5881 35.6729 50.5881 37.1027ZM58.0409 36.9072C57.4819 38.2296 56.9907 39.3995 56.9494 39.5069C56.9078 39.6145 57.0652 39.7024 57.2992 39.7024C57.5799 39.7024 57.8214 39.4338 58.0102 38.9112C58.2755 38.1765 58.3643 38.12 59.2523 38.12C60.1401 38.12 60.229 38.1765 60.4944 38.9112C60.6871 39.4442 60.9228 39.7024 61.2173 39.7024C61.4576 39.7024 61.6543 39.6766 61.6543 39.6452C61.6543 39.3814 59.3984 34.617 59.2503 34.5675C59.1439 34.532 58.5998 35.585 58.0409 36.9072ZM63.4925 36.9332C62.9188 39.8166 62.9254 39.7024 63.333 39.7024C63.7052 39.7024 63.8215 39.3726 64.0306 37.7244C64.1133 37.0718 64.2495 36.5376 64.3335 36.5376C64.4173 36.5376 64.7768 37.3005 65.1325 38.233C65.4882 39.1655 65.8439 39.9285 65.923 39.9285C66.002 39.9285 66.3577 39.1655 66.7134 38.233C67.0691 37.3005 67.4381 36.5376 67.5332 36.5376C67.6283 36.5376 67.7776 37.2497 67.865 38.12C68.0003 39.4678 68.0874 39.7024 68.4524 39.7024C68.6884 39.7024 68.8813 39.6712 68.8813 39.633C68.8813 39.284 67.9533 34.6292 67.8663 34.5422C67.6771 34.3527 67.5506 34.5815 66.7636 36.534C66.3487 37.5637 65.9557 38.3164 65.8904 38.2066C65.8252 38.0967 65.4455 37.2185 65.0469 36.255C64.6483 35.2916 64.2443 34.5031 64.1492 34.5031C64.0539 34.5031 63.7585 35.5967 63.4925 36.9332ZM72.0431 37.1027C72.0431 39.2629 72.1004 39.7024 72.3818 39.7024C72.6632 39.7024 72.7206 39.2629 72.7206 37.1027C72.7206 34.9425 72.6632 34.5031 72.3818 34.5031C72.1004 34.5031 72.0431 34.9425 72.0431 37.1027ZM77.8881 34.8428C77.2288 35.2014 76.5599 36.4255 76.5599 37.273C76.5599 38.1623 77.4904 39.3296 78.4522 39.647C79.4963 39.9913 80.7025 39.7415 80.8148 39.1576C80.8789 38.8248 80.8003 38.7866 80.3635 38.9385C78.8086 39.48 77.4633 38.6576 77.4633 37.166C77.4633 36.5265 77.6202 36.1339 78.0468 35.7068C78.5647 35.1885 78.7553 35.1376 79.7407 35.2545C80.5855 35.3546 80.8509 35.3133 80.8509 35.0818C80.8509 34.4434 78.9102 34.287 77.8881 34.8428ZM84.3865 34.9165C83.9214 35.4308 83.9029 36.3954 84.3494 36.8423C84.5346 37.0277 85.0427 37.2971 85.4786 37.4411C86.1351 37.6579 86.2711 37.8121 86.2711 38.3395C86.2711 38.9171 85.9371 39.2503 85.358 39.2503C85.2489 39.2503 84.9517 39.0269 84.6977 38.7543C84.0499 38.0583 83.5992 38.516 84.2003 39.2593C85.1091 40.3826 87.1745 39.68 87.1745 38.2475C87.1745 37.6446 86.4084 36.9013 85.4807 36.6041C84.9745 36.4417 84.8031 36.2487 84.8031 35.8407C84.8031 35.1401 85.76 34.9369 86.2029 35.5432C86.429 35.8529 86.5609 35.8859 86.7634 35.6831C86.966 35.4803 86.931 35.3103 86.6146 34.9606C86.0902 34.3803 84.8926 34.3566 84.3865 34.9165ZM32.2949 35.9575C32.2949 36.7044 32.3453 36.7636 32.9794 36.7636C34.2134 36.7636 34.1355 35.3714 32.8932 35.2228C32.3446 35.1571 32.2949 35.2181 32.2949 35.9575ZM58.8543 36.6305C58.3952 37.7305 58.376 37.6679 59.1701 37.6679C59.9388 37.6679 59.9718 37.5632 59.5319 36.5159L59.2159 35.764L58.8543 36.6305ZM32.2949 38.2188C32.2949 38.9899 32.3288 39.0242 33.0923 39.0242C34.5007 39.0242 34.4223 37.6252 33.0061 37.4841C32.3281 37.4165 32.2949 37.4509 32.2949 38.2188Z" fill="white"/>
<path fill-rule="evenodd" clip-rule="evenodd" d="M11.7973 15.0995C11.2253 15.6721 11.6535 16.6367 12.4796 16.6367C13.0575 16.6367 13.4925 15.6318 13.1128 15.1741C12.7693 14.7597 12.1706 14.7258 11.7973 15.0995ZM39.0366 18.8407C38.7183 19.1827 37.6578 21.0118 36.6794 22.9055C35.043 26.0734 34.5459 26.821 34.5721 26.0746C34.5775 25.9193 34.1457 24.1391 33.6127 22.1185L32.6432 18.4451H30.6669C29.5797 18.4451 28.6903 18.4783 28.6903 18.519C28.6903 18.9592 32.1567 30.3999 32.4052 30.7793C32.589 31.0603 33.0994 31.4088 33.5393 31.5542C34.2155 31.7775 34.4689 31.7545 35.1799 31.405C36.0487 30.9775 37.1273 29.3101 39.5768 24.6079C40.1104 23.5836 40.5978 22.7468 40.6599 22.7483C40.722 22.7499 41.3776 23.8791 42.1168 25.258C44.758 30.185 45.3735 31.1152 46.2287 31.4728C47.2118 31.884 48.3993 31.5666 48.9341 30.7497C49.2372 30.2869 52.6295 19.1642 52.6295 18.6336C52.6295 18.5299 51.7831 18.4451 50.7485 18.4451H48.8672L47.8905 22.1185C47.3532 24.1391 46.8423 25.9312 46.7551 26.1015C46.6544 26.2979 45.9231 25.1025 44.7497 22.8236C43.7338 20.8506 42.6466 19.0073 42.3334 18.7277C41.4682 17.9548 39.808 18.0118 39.0366 18.8407ZM54.593 19.971L53.3739 21.4969L56.3893 21.5597L59.4048 21.6226V26.5983V31.5741L61.3809 31.5088L63.357 31.4434L63.418 26.5267L63.4787 21.6099H65.8261H68.1738L69.3224 20.165C69.9541 19.3704 70.471 18.6583 70.471 18.5826C70.471 18.5071 67.1728 18.4451 63.1416 18.4451H55.8121L54.593 19.971ZM72.1133 19.971L70.9327 21.4969L77.0022 21.6099C82.5624 21.7135 83.1116 21.7591 83.5466 22.1536C84.0945 22.6505 84.1645 23.5882 83.7013 24.2229C83.3996 24.6364 83.0145 24.6655 77.039 24.7284L70.6969 24.7948V28.1844V31.5741L72.673 31.5088L74.6491 31.4434L74.7148 29.8307L74.7808 28.218L79.2317 28.1107C82.6211 28.0291 83.9215 27.9138 84.6835 27.628C87.0643 26.7349 88.245 25.02 88.0151 22.7902C87.8509 21.1978 87.0602 20.0558 85.5365 19.2105L84.3603 18.5581L78.8272 18.5016L73.2941 18.4449L72.1133 19.971ZM59.2067 34.9724C59.0909 35.2695 58.6306 36.3606 58.1841 37.3976C57.3241 39.3941 57.2455 39.6945 57.5834 39.6945C57.6997 39.6945 57.9233 39.3385 58.0804 38.9033C58.353 38.1492 58.4169 38.1121 59.447 38.1121C60.4689 38.1121 60.546 38.1553 60.8583 38.9033C61.1535 39.6104 61.6632 39.9932 61.6632 39.5076C61.6632 39.331 59.6503 34.7082 59.4917 34.5203C59.4509 34.4721 59.3226 34.6756 59.2067 34.9724ZM64.2852 34.7213C63.953 35.6395 63.3405 39.5915 63.5196 39.6615C63.8475 39.7902 63.8979 39.6468 64.1723 37.8002C64.3155 36.8358 64.5072 36.1301 64.598 36.2318C64.689 36.3335 65.0472 37.1541 65.3943 38.0556C65.7414 38.9571 66.0877 39.6945 66.1635 39.6945C66.2394 39.6945 66.5938 38.9286 66.9508 37.9923C67.3079 37.0562 67.6697 36.2472 67.7546 36.1945C67.8395 36.142 68.0297 36.8756 68.1772 37.8248C68.3246 38.774 68.4945 39.5998 68.5548 39.6602C68.9123 40.018 68.9082 39.1839 68.5417 36.9841C68.3131 35.6131 68.0523 34.5684 67.9622 34.6627C67.8718 34.7572 67.4405 35.699 67.0037 36.7558L66.2092 38.6773L65.8322 37.773C64.5479 34.6923 64.4008 34.4023 64.2852 34.7213ZM78.4631 34.7167C76.667 35.4433 76.5265 38.6357 78.2562 39.4244C79.348 39.9224 81.0856 39.7214 81.0856 39.0973C81.0856 38.8482 80.9858 38.8278 80.6488 39.0084C79.4686 39.6405 77.8628 38.9255 77.5812 37.6424C77.2325 36.0539 78.6998 34.7036 80.2952 35.1444C81.1461 35.3798 81.3706 35.116 80.6488 34.7292C80.1321 34.4525 79.1309 34.4466 78.4631 34.7167ZM84.9881 34.721C84.4075 34.9604 84.1085 35.8692 84.4242 36.4341C84.5439 36.6482 85.0866 37.037 85.6302 37.2981C86.1738 37.5594 86.6526 37.9559 86.6939 38.1795C86.8751 39.1606 85.41 39.6518 84.8725 38.7903C84.548 38.2704 84.2474 38.1992 84.2474 38.6422C84.2474 39.1475 85.0311 39.6945 85.7547 39.6945C86.604 39.6945 87.1833 39.0799 87.1833 38.1786C87.1833 37.415 86.9387 37.1457 85.9572 36.8293C85.0929 36.5503 84.7277 35.9847 85.071 35.456C85.338 35.0443 86.3319 35.0088 86.4681 35.406C86.562 35.6795 87.1833 35.6978 87.1833 35.427C87.1833 34.8456 85.7802 34.3942 84.9881 34.721ZM32.0779 37.2366V39.752L33.2451 39.6398C34.8887 39.4818 35.5536 38.4056 34.6353 37.3899C34.3449 37.0689 34.3187 36.909 34.5224 36.7051C34.9167 36.3104 34.8443 35.5206 34.375 35.0954C34.1297 34.8732 33.5795 34.7213 33.0199 34.7213H32.0779V37.2366ZM37.9839 36.7759C38.0544 38.6122 38.1194 38.8764 38.5959 39.2625C39.3787 39.8969 40.7636 39.8374 41.4605 39.1396C41.9628 38.637 42.015 38.4026 42.015 36.6529C42.015 35.0866 41.9508 34.7213 41.6762 34.7213C41.4032 34.7213 41.3374 35.0746 41.3374 36.5446C41.3374 38.8353 41.1385 39.2424 40.0196 39.2424C38.7762 39.2424 38.6273 38.9716 38.6273 36.7106C38.6273 35.038 38.5697 34.7213 38.2662 34.7213C37.9557 34.7213 37.9159 35.0106 37.9839 36.7759ZM44.7309 34.8908C44.7341 34.9839 45.0898 35.6151 45.5214 36.2933C46.1368 37.2601 46.306 37.7599 46.306 38.6104C46.306 39.2067 46.4076 39.6945 46.5318 39.6945C46.656 39.6945 46.7576 39.1839 46.7576 38.5597C46.7576 37.7604 46.9139 37.1758 47.2866 36.5817C48.2719 35.0113 48.3891 34.7213 48.0391 34.7213C47.8656 34.7213 47.4812 35.179 47.1847 35.7385C46.8882 36.298 46.5833 36.7558 46.5072 36.7558C46.4311 36.7558 46.1262 36.298 45.8297 35.7385C45.5331 35.179 45.1632 34.7213 45.0078 34.7213C44.8522 34.7213 44.7278 34.7977 44.7309 34.8908ZM51.0565 37.1514C51.0518 38.7015 51.1369 39.6945 51.2745 39.6945C51.4077 39.6945 51.5003 38.8843 51.5005 37.7165L51.5008 35.7385L53.4091 37.773L55.3175 39.8076L55.3286 37.2644C55.3378 35.1496 55.2825 34.7213 55.0009 34.7213C54.7278 34.7213 54.6605 35.0827 54.6542 36.5862L54.6463 38.4512L52.8554 36.5297L51.0644 34.6082L51.0565 37.1514ZM72.3265 37.1331C72.3713 38.8138 72.4763 39.5731 72.673 39.6385C72.8875 39.7097 72.9553 39.1305 72.9553 37.2267C72.9553 35.1257 72.8993 34.7213 72.6088 34.7213C72.3153 34.7213 72.2723 35.0884 72.3265 37.1331ZM32.5725 36.0193C32.6563 37.0304 33.1771 37.238 33.8758 36.5385C34.5188 35.895 34.1536 35.1734 33.1854 35.1734C32.5343 35.1734 32.5057 35.2132 32.5725 36.0193ZM59.0976 36.3878C58.5908 37.5859 58.6152 37.66 59.5177 37.66C60.4156 37.66 60.4197 37.646 59.8711 36.4167L59.4678 35.5125L59.0976 36.3878ZM32.5296 38.2252C32.5296 39.1886 32.563 39.2424 33.162 39.2424C33.9319 39.2424 34.3363 38.8746 34.3363 38.1743C34.3363 37.8183 34.1496 37.5777 33.757 37.4283C32.6922 37.0232 32.5296 37.1286 32.5296 38.2252Z" fill="white"/>
<circle cx="12.75" cy="15.5833" r="0.708333" fill="#002E5B"/>
</svg>
